<svg version="1.1" id="Layer_1" xmlns="http://www.w3.org/2000/svg" xmlns:xlink="http://www.w3.org/1999/xlink" x="0px" y="0px"
	 width="100%" viewBox="0 0 576 384" enable-background="new 0 0 576 384" xml:space="preserve">
<path fill="#000000" opacity="1.000000" stroke="none" 
	d="
M356.536743,311.729370 
	C340.769135,318.634644 325.078308,319.793488 309.008636,314.290588 
	C297.095764,310.211090 284.944366,310.177460 272.528137,311.641937 
	C265.349365,312.488647 258.202728,313.538574 251.032059,314.419342 
	C249.485596,314.609314 247.801208,314.948090 247.035614,316.187378 
	C244.857651,319.712921 241.843216,318.770294 238.704834,318.352142 
	C235.235245,317.889862 232.584183,316.022827 233.025055,312.731659 
	C233.424271,309.751404 234.766998,306.853699 238.941467,305.774811 
	C249.094772,303.150696 259.697205,302.876648 269.671021,299.575897 
	C273.410645,298.338318 278.295227,297.225647 277.558044,292.105377 
	C276.810791,286.915009 271.695435,287.785004 267.873505,287.295258 
	C263.765900,286.768890 260.535645,289.049774 257.102020,290.687897 
	C253.601685,292.357880 246.394409,291.121338 243.808548,288.481171 
	C242.465866,287.110321 242.081345,285.509125 243.102814,283.946808 
	C245.097153,280.896423 244.932480,277.629059 244.436050,274.297821 
	C243.800491,270.033081 244.908279,266.166656 247.991333,263.329193 
	C251.467285,260.130157 251.909439,257.512573 247.894852,254.608154 
	C247.457611,254.291824 247.369583,253.492783 247.142365,252.970047 
	C248.457886,250.940231 250.847885,252.318863 252.166046,250.997818 
	C252.395004,242.162674 252.599121,241.825592 260.669189,246.712387 
	C274.887787,255.322372 290.282318,255.135101 305.133728,251.029190 
	C312.498322,248.993118 320.359772,243.661545 321.039825,233.477798 
	C321.212463,230.892654 320.842712,229.736298 318.319336,229.354263 
	C313.615753,228.642105 309.504669,226.642761 305.605621,223.900055 
	C302.400391,221.645432 298.549866,221.067795 294.626801,221.189163 
	C292.684601,221.249268 290.739044,221.199631 288.156891,221.199631 
	C291.210144,217.323914 295.468964,218.562927 299.522308,217.138321 
	C294.840393,210.088104 289.300323,205.157562 280.851990,204.299866 
	C270.438538,203.242676 262.770416,207.624557 257.519165,216.427597 
	C256.432922,218.248566 255.752075,220.386703 255.245728,222.466629 
	C250.142975,243.426941 237.134338,258.921143 220.704880,271.864777 
	C212.834595,278.065247 203.400513,274.920807 199.650833,265.508057 
	C196.801102,258.354431 197.945786,251.438797 200.963882,244.704086 
	C205.246185,235.148346 212.832077,228.679657 221.749649,223.815979 
	C232.237518,218.095840 238.263489,209.558136 241.202133,198.007767 
	C247.027603,175.110596 267.016663,159.786972 290.156097,159.703140 
	C313.462799,159.618698 333.375824,174.617264 339.392181,197.554794 
	C342.530273,209.518723 348.905243,218.110107 359.545319,224.703568 
	C385.950806,241.066605 392.113068,276.645935 373.129395,299.329987 
	C368.663544,304.666321 363.006744,308.430389 356.536743,311.729370 
z"/>
<path fill="#000000" opacity="1.000000" stroke="none" 
	d="
M332.638733,156.169632 
	C320.613159,156.945114 312.824585,151.185120 307.723358,141.402344 
	C297.205566,121.232262 304.729706,88.761749 322.897644,75.136856 
	C338.740723,63.255466 356.620026,68.335381 363.813385,86.761955 
	C371.974457,107.667412 364.734863,135.292618 347.433563,149.520889 
	C343.203278,152.999802 338.403412,155.100143 332.638733,156.169632 
z"/>
<path fill="#000000" opacity="1.000000" stroke="none" 
	d="
M268.941437,148.936966 
	C258.743134,158.479691 246.165054,158.809616 234.845398,149.709686 
	C223.661621,140.718994 218.010635,128.536240 215.709320,114.634224 
	C213.986557,104.227356 214.899811,94.098495 219.320938,84.417831 
	C226.491455,68.716927 242.875946,63.970268 257.091339,73.741005 
	C269.836029,82.500854 275.822510,95.459961 278.237732,110.230141 
	C280.524292,124.213303 278.776520,137.409973 268.941437,148.936966 
z"/>
<path fill="#000000" opacity="1.000000" stroke="none" 
	d="
M401.076569,205.179443 
	C396.756042,208.157852 392.414856,210.288147 387.602356,211.177277 
	C373.596313,213.764923 362.492615,205.412109 360.795959,191.133667 
	C358.553955,172.265717 370.518677,150.598175 387.630646,142.399185 
	C396.644257,138.080429 405.739838,136.950272 414.046570,143.382828 
	C422.386871,149.841370 424.067963,159.218002 422.749969,169.099792 
	C420.758270,184.032761 413.536072,196.019485 401.076569,205.179443 
z"/>
<path fill="#000000" opacity="1.000000" stroke="none" 
	d="
M218.078064,169.140442 
	C220.676865,175.794159 221.604248,182.296616 221.348618,189.057571 
	C220.727066,205.496429 206.683167,215.787170 191.193604,210.216293 
	C173.334732,203.793320 163.814438,189.896500 159.690628,171.895172 
	C158.639648,167.307404 158.587601,162.697372 159.555527,158.027924 
	C162.780624,142.469574 175.417648,135.211624 190.342377,140.768768 
	C203.814606,145.785049 212.319077,155.907776 218.078064,169.140442 
z"/>
<path fill="#000000" opacity="1.000000" stroke="none" 
	d="
M273.076050,225.873489 
	C271.948212,231.167007 272.221222,236.271301 270.395630,240.983261 
	C269.375519,243.616180 268.386627,246.702454 265.026642,246.821594 
	C261.607300,246.942856 260.317474,243.920883 259.401672,241.269073 
	C255.778397,230.777206 257.428375,220.878632 263.736420,211.913803 
	C266.912842,207.399551 272.022949,206.782364 278.050415,209.684143 
	C274.947968,214.461334 273.366577,219.764603 273.076050,225.873489 
z"/>
</svg>